<svg xmlns="http://www.w3.org/2000/svg" viewBox="0 0 800 360" preserveAspectRatio="xMidYMid slice">
  <defs>
    <linearGradient id="bg" x1="0" y1="0" x2="1" y2="1">
      <stop offset="0" stop-color="#1a0e08"></stop>
      <stop offset="1" stop-color="#2a1810"></stop>
    </linearGradient>
    <pattern id="grid" x="0" y="0" width="40" height="40" patternUnits="userSpaceOnUse">
      <path d="M 40 0 L 0 0 0 40" fill="none" stroke="#D97757" stroke-width="0.4" opacity="0.08"></path>
    </pattern>
  </defs>
  <rect width="800" height="360" fill="url(#bg)"></rect>
  <rect width="800" height="360" fill="url(#grid)"></rect>
  <line x1="0" y1="280" x2="800" y2="280" stroke="#D97757" stroke-width="1.2" opacity="0.5"></line><polyline points="60,250 60,140 400,130 740,140 740,250" fill="none" stroke="#D97757" stroke-width="1.4" opacity="0.85"></polyline><line x1="60" y1="250" x2="740" y2="250" stroke="#D97757" stroke-width="1.4" opacity="0.85"></line><line x1="60" y1="140" x2="400" y2="130" stroke="#D97757" stroke-width="0.6" opacity="0.4"></line><rect x="86" y="190" width="68" height="60" fill="none" stroke="#D97757" stroke-width="1" opacity="0.7"></rect><line x1="86" y1="200" x2="154" y2="200" stroke="#D97757" stroke-width="0.4" opacity="0.35"></line><line x1="86" y1="210" x2="154" y2="210" stroke="#D97757" stroke-width="0.4" opacity="0.35"></line><line x1="86" y1="220" x2="154" y2="220" stroke="#D97757" stroke-width="0.4" opacity="0.35"></line><line x1="86" y1="230" x2="154" y2="230" stroke="#D97757" stroke-width="0.4" opacity="0.35"></line><line x1="86" y1="240" x2="154" y2="240" stroke="#D97757" stroke-width="0.4" opacity="0.35"></line><rect x="166" y="190" width="68" height="60" fill="none" stroke="#D97757" stroke-width="1" opacity="0.7"></rect><line x1="166" y1="200" x2="234" y2="200" stroke="#D97757" stroke-width="0.4" opacity="0.35"></line><line x1="166" y1="210" x2="234" y2="210" stroke="#D97757" stroke-width="0.4" opacity="0.35"></line><line x1="166" y1="220" x2="234" y2="220" stroke="#D97757" stroke-width="0.4" opacity="0.35"></line><line x1="166" y1="230" x2="234" y2="230" stroke="#D97757" stroke-width="0.4" opacity="0.35"></line><line x1="166" y1="240" x2="234" y2="240" stroke="#D97757" stroke-width="0.4" opacity="0.35"></line><rect x="246" y="190" width="68" height="60" fill="none" stroke="#D97757" stroke-width="1" opacity="0.7"></rect><line x1="246" y1="200" x2="314" y2="200" stroke="#D97757" stroke-width="0.4" opacity="0.35"></line><line x1="246" y1="210" x2="314" y2="210" stroke="#D97757" stroke-width="0.4" opacity="0.35"></line><line x1="246" y1="220" x2="314" y2="220" stroke="#D97757" stroke-width="0.4" opacity="0.35"></line><line x1="246" y1="230" x2="314" y2="230" stroke="#D97757" stroke-width="0.4" opacity="0.35"></line><line x1="246" y1="240" x2="314" y2="240" stroke="#D97757" stroke-width="0.4" opacity="0.35"></line><rect x="326" y="190" width="68" height="60" fill="none" stroke="#D97757" stroke-width="1" opacity="0.7"></rect><line x1="326" y1="200" x2="394" y2="200" stroke="#D97757" stroke-width="0.4" opacity="0.35"></line><line x1="326" y1="210" x2="394" y2="210" stroke="#D97757" stroke-width="0.4" opacity="0.35"></line><line x1="326" y1="220" x2="394" y2="220" stroke="#D97757" stroke-width="0.4" opacity="0.35"></line><line x1="326" y1="230" x2="394" y2="230" stroke="#D97757" stroke-width="0.4" opacity="0.35"></line><line x1="326" y1="240" x2="394" y2="240" stroke="#D97757" stroke-width="0.4" opacity="0.35"></line><rect x="406" y="190" width="68" height="60" fill="none" stroke="#D97757" stroke-width="1" opacity="0.7"></rect><line x1="406" y1="200" x2="474" y2="200" stroke="#D97757" stroke-width="0.4" opacity="0.35"></line><line x1="406" y1="210" x2="474" y2="210" stroke="#D97757" stroke-width="0.4" opacity="0.35"></line><line x1="406" y1="220" x2="474" y2="220" stroke="#D97757" stroke-width="0.4" opacity="0.35"></line><line x1="406" y1="230" x2="474" y2="230" stroke="#D97757" stroke-width="0.4" opacity="0.35"></line><line x1="406" y1="240" x2="474" y2="240" stroke="#D97757" stroke-width="0.4" opacity="0.35"></line><rect x="486" y="190" width="68" height="60" fill="none" stroke="#D97757" stroke-width="1" opacity="0.7"></rect><line x1="486" y1="200" x2="554" y2="200" stroke="#D97757" stroke-width="0.4" opacity="0.35"></line><line x1="486" y1="210" x2="554" y2="210" stroke="#D97757" stroke-width="0.4" opacity="0.35"></line><line x1="486" y1="220" x2="554" y2="220" stroke="#D97757" stroke-width="0.4" opacity="0.35"></line><line x1="486" y1="230" x2="554" y2="230" stroke="#D97757" stroke-width="0.4" opacity="0.35"></line><line x1="486" y1="240" x2="554" y2="240" stroke="#D97757" stroke-width="0.4" opacity="0.35"></line><rect x="566" y="190" width="68" height="60" fill="none" stroke="#D97757" stroke-width="1" opacity="0.7"></rect><line x1="566" y1="200" x2="634" y2="200" stroke="#D97757" stroke-width="0.4" opacity="0.35"></line><line x1="566" y1="210" x2="634" y2="210" stroke="#D97757" stroke-width="0.4" opacity="0.35"></line><line x1="566" y1="220" x2="634" y2="220" stroke="#D97757" stroke-width="0.4" opacity="0.35"></line><line x1="566" y1="230" x2="634" y2="230" stroke="#D97757" stroke-width="0.4" opacity="0.35"></line><line x1="566" y1="240" x2="634" y2="240" stroke="#D97757" stroke-width="0.4" opacity="0.35"></line><rect x="646" y="190" width="68" height="60" fill="none" stroke="#D97757" stroke-width="1" opacity="0.7"></rect><line x1="646" y1="200" x2="714" y2="200" stroke="#D97757" stroke-width="0.4" opacity="0.35"></line><line x1="646" y1="210" x2="714" y2="210" stroke="#D97757" stroke-width="0.4" opacity="0.35"></line><line x1="646" y1="220" x2="714" y2="220" stroke="#D97757" stroke-width="0.4" opacity="0.35"></line><line x1="646" y1="230" x2="714" y2="230" stroke="#D97757" stroke-width="0.4" opacity="0.35"></line><line x1="646" y1="240" x2="714" y2="240" stroke="#D97757" stroke-width="0.4" opacity="0.35"></line><rect x="600" y="244" width="80" height="30" fill="none" stroke="#D97757" stroke-width="1" opacity="0.55"></rect><rect x="680" y="254" width="22" height="20" fill="none" stroke="#D97757" stroke-width="1" opacity="0.55"></rect><circle cx="618" cy="276" r="5" fill="none" stroke="#D97757" stroke-width="1" opacity="0.55"></circle><circle cx="664" cy="276" r="5" fill="none" stroke="#D97757" stroke-width="1" opacity="0.55"></circle><circle cx="695" cy="276" r="5" fill="none" stroke="#D97757" stroke-width="1" opacity="0.55"></circle>
  <text x="32" y="334" font-family="ui-monospace, Menlo, monospace" font-size="11" letter-spacing="2.4" fill="#D97757" opacity="0.55">LOGISTICA · BASSANO DEL GRAPPA · 2014</text>
  <line x1="32" y1="342" x2="298.40000000000003" y2="342" stroke="#D97757" stroke-width="1" opacity="0.4"></line>
</svg>