<svg xmlns="http://www.w3.org/2000/svg" viewBox="0 0 800 360" preserveAspectRatio="xMidYMid slice">
  <defs>
    <linearGradient id="bg" x1="0" y1="0" x2="1" y2="1">
      <stop offset="0" stop-color="#1a0e08"></stop>
      <stop offset="1" stop-color="#2a1810"></stop>
    </linearGradient>
    <pattern id="grid" x="0" y="0" width="40" height="40" patternUnits="userSpaceOnUse">
      <path d="M 40 0 L 0 0 0 40" fill="none" stroke="#D97757" stroke-width="0.4" opacity="0.08"></path>
    </pattern>
  </defs>
  <rect width="800" height="360" fill="url(#bg)"></rect>
  <rect width="800" height="360" fill="url(#grid)"></rect>
  <line x1="0" y1="280" x2="800" y2="280" stroke="#D97757" stroke-width="1.2" opacity="0.5"></line><line x1="80" y1="220" x2="146" y2="150" stroke="#D97757" stroke-width="1.4" opacity="0.85"></line><line x1="146" y1="150" x2="190" y2="150" stroke="#D97757" stroke-width="1.4" opacity="0.85"></line><line x1="190" y1="150" x2="190" y2="220" stroke="#D97757" stroke-width="1.4" opacity="0.85"></line><line x1="96.5" y1="202.5" x2="96.5" y2="220" stroke="#D97757" stroke-width="0.5" opacity="0.4"></line><line x1="113" y1="185" x2="113" y2="220" stroke="#D97757" stroke-width="0.5" opacity="0.4"></line><line x1="129.5" y1="167.5" x2="129.5" y2="220" stroke="#D97757" stroke-width="0.5" opacity="0.4"></line><line x1="190" y1="220" x2="256" y2="150" stroke="#D97757" stroke-width="1.4" opacity="0.85"></line><line x1="256" y1="150" x2="300" y2="150" stroke="#D97757" stroke-width="1.4" opacity="0.85"></line><line x1="300" y1="150" x2="300" y2="220" stroke="#D97757" stroke-width="1.4" opacity="0.85"></line><line x1="206.5" y1="202.5" x2="206.5" y2="220" stroke="#D97757" stroke-width="0.5" opacity="0.4"></line><line x1="223" y1="185" x2="223" y2="220" stroke="#D97757" stroke-width="0.5" opacity="0.4"></line><line x1="239.5" y1="167.5" x2="239.5" y2="220" stroke="#D97757" stroke-width="0.5" opacity="0.4"></line><line x1="300" y1="220" x2="366" y2="150" stroke="#D97757" stroke-width="1.4" opacity="0.85"></line><line x1="366" y1="150" x2="410" y2="150" stroke="#D97757" stroke-width="1.4" opacity="0.85"></line><line x1="410" y1="150" x2="410" y2="220" stroke="#D97757" stroke-width="1.4" opacity="0.85"></line><line x1="316.5" y1="202.5" x2="316.5" y2="220" stroke="#D97757" stroke-width="0.5" opacity="0.4"></line><line x1="333" y1="185" x2="333" y2="220" stroke="#D97757" stroke-width="0.5" opacity="0.4"></line><line x1="349.5" y1="167.5" x2="349.5" y2="220" stroke="#D97757" stroke-width="0.5" opacity="0.4"></line><line x1="410" y1="220" x2="476" y2="150" stroke="#D97757" stroke-width="1.4" opacity="0.85"></line><line x1="476" y1="150" x2="520" y2="150" stroke="#D97757" stroke-width="1.4" opacity="0.85"></line><line x1="520" y1="150" x2="520" y2="220" stroke="#D97757" stroke-width="1.4" opacity="0.85"></line><line x1="426.5" y1="202.5" x2="426.5" y2="220" stroke="#D97757" stroke-width="0.5" opacity="0.4"></line><line x1="443" y1="185" x2="443" y2="220" stroke="#D97757" stroke-width="0.5" opacity="0.4"></line><line x1="459.5" y1="167.5" x2="459.5" y2="220" stroke="#D97757" stroke-width="0.5" opacity="0.4"></line><line x1="520" y1="220" x2="586" y2="150" stroke="#D97757" stroke-width="1.4" opacity="0.85"></line><line x1="586" y1="150" x2="630" y2="150" stroke="#D97757" stroke-width="1.4" opacity="0.85"></line><line x1="630" y1="150" x2="630" y2="220" stroke="#D97757" stroke-width="1.4" opacity="0.85"></line><line x1="536.5" y1="202.5" x2="536.5" y2="220" stroke="#D97757" stroke-width="0.5" opacity="0.4"></line><line x1="553" y1="185" x2="553" y2="220" stroke="#D97757" stroke-width="0.5" opacity="0.4"></line><line x1="569.5" y1="167.5" x2="569.5" y2="220" stroke="#D97757" stroke-width="0.5" opacity="0.4"></line><line x1="630" y1="220" x2="696" y2="150" stroke="#D97757" stroke-width="1.4" opacity="0.85"></line><line x1="696" y1="150" x2="740" y2="150" stroke="#D97757" stroke-width="1.4" opacity="0.85"></line><line x1="740" y1="150" x2="740" y2="220" stroke="#D97757" stroke-width="1.4" opacity="0.85"></line><line x1="646.5" y1="202.5" x2="646.5" y2="220" stroke="#D97757" stroke-width="0.5" opacity="0.4"></line><line x1="663" y1="185" x2="663" y2="220" stroke="#D97757" stroke-width="0.5" opacity="0.4"></line><line x1="679.5" y1="167.5" x2="679.5" y2="220" stroke="#D97757" stroke-width="0.5" opacity="0.4"></line><line x1="80" y1="220" x2="80" y2="280" stroke="#D97757" stroke-width="1.4" opacity="0.85"></line><line x1="740" y1="220" x2="740" y2="280" stroke="#D97757" stroke-width="1.4" opacity="0.85"></line><line x1="80" y1="220" x2="740" y2="220" stroke="#D97757" stroke-width="1.4" opacity="0.85"></line><rect x="392" y="242" width="36" height="38" fill="none" stroke="#D97757" stroke-width="1" opacity="0.6"></rect><line x1="80" y1="294" x2="740" y2="294" stroke="#D97757" stroke-width="0.6" opacity="0.4"></line><line x1="80" y1="290" x2="80" y2="298" stroke="#D97757" stroke-width="0.6" opacity="0.4"></line><line x1="740" y1="290" x2="740" y2="298" stroke="#D97757" stroke-width="0.6" opacity="0.4"></line>
  <text x="32" y="334" font-family="ui-monospace, Menlo, monospace" font-size="11" letter-spacing="2.4" fill="#D97757" opacity="0.55">EDILIZIA · STAB. APERTO · 2017</text>
  <line x1="32" y1="342" x2="248" y2="342" stroke="#D97757" stroke-width="1" opacity="0.4"></line>
</svg>