<svg xmlns="http://www.w3.org/2000/svg" viewBox="0 0 800 360" preserveAspectRatio="xMidYMid slice">
  <defs>
    <linearGradient id="bg" x1="0" y1="0" x2="1" y2="1">
      <stop offset="0" stop-color="#1a0e08"></stop>
      <stop offset="1" stop-color="#2a1810"></stop>
    </linearGradient>
    <pattern id="grid" x="0" y="0" width="40" height="40" patternUnits="userSpaceOnUse">
      <path d="M 40 0 L 0 0 0 40" fill="none" stroke="#D97757" stroke-width="0.4" opacity="0.08"></path>
    </pattern>
  </defs>
  <rect width="800" height="360" fill="url(#bg)"></rect>
  <rect width="800" height="360" fill="url(#grid)"></rect>
  <line x1="0" y1="280" x2="800" y2="280" stroke="#D97757" stroke-width="1.2" opacity="0.5"></line><polyline points="50,250 50,150 400,120 750,150 750,250 50,250" fill="none" stroke="#D97757" stroke-width="1.4" opacity="0.85"></polyline><line x1="120" y1="250" x2="120" y2="174" stroke="#D97757" stroke-width="0.5" opacity="0.3" stroke-dasharray="3 3"></line><line x1="190" y1="250" x2="190" y2="168" stroke="#D97757" stroke-width="0.5" opacity="0.3" stroke-dasharray="3 3"></line><line x1="260" y1="250" x2="260" y2="162" stroke="#D97757" stroke-width="0.5" opacity="0.3" stroke-dasharray="3 3"></line><line x1="330" y1="250" x2="330" y2="156" stroke="#D97757" stroke-width="0.5" opacity="0.3" stroke-dasharray="3 3"></line><line x1="400" y1="250" x2="400" y2="150" stroke="#D97757" stroke-width="0.5" opacity="0.3" stroke-dasharray="3 3"></line><line x1="470" y1="250" x2="470" y2="156" stroke="#D97757" stroke-width="0.5" opacity="0.3" stroke-dasharray="3 3"></line><line x1="540" y1="250" x2="540" y2="162" stroke="#D97757" stroke-width="0.5" opacity="0.3" stroke-dasharray="3 3"></line><line x1="610" y1="250" x2="610" y2="168" stroke="#D97757" stroke-width="0.5" opacity="0.3" stroke-dasharray="3 3"></line><line x1="680" y1="250" x2="680" y2="174" stroke="#D97757" stroke-width="0.5" opacity="0.3" stroke-dasharray="3 3"></line><line x1="50" y1="150" x2="50" y2="250" stroke="#D97757" stroke-width="0.3" opacity="0.18"></line><line x1="79.16666666666666" y1="147.5" x2="79.16666666666666" y2="250" stroke="#D97757" stroke-width="0.3" opacity="0.18"></line><line x1="108.33333333333333" y1="145" x2="108.33333333333333" y2="250" stroke="#D97757" stroke-width="0.3" opacity="0.18"></line><line x1="137.5" y1="142.5" x2="137.5" y2="250" stroke="#D97757" stroke-width="0.3" opacity="0.18"></line><line x1="166.66666666666666" y1="140" x2="166.66666666666666" y2="250" stroke="#D97757" stroke-width="0.3" opacity="0.18"></line><line x1="195.83333333333334" y1="137.5" x2="195.83333333333334" y2="250" stroke="#D97757" stroke-width="0.3" opacity="0.18"></line><line x1="225" y1="135" x2="225" y2="250" stroke="#D97757" stroke-width="0.3" opacity="0.18"></line><line x1="254.16666666666669" y1="132.5" x2="254.16666666666669" y2="250" stroke="#D97757" stroke-width="0.3" opacity="0.18"></line><line x1="283.3333333333333" y1="130" x2="283.3333333333333" y2="250" stroke="#D97757" stroke-width="0.3" opacity="0.18"></line><line x1="312.5" y1="127.5" x2="312.5" y2="250" stroke="#D97757" stroke-width="0.3" opacity="0.18"></line><line x1="341.6666666666667" y1="125" x2="341.6666666666667" y2="250" stroke="#D97757" stroke-width="0.3" opacity="0.18"></line><line x1="370.8333333333333" y1="122.5" x2="370.8333333333333" y2="250" stroke="#D97757" stroke-width="0.3" opacity="0.18"></line><line x1="400" y1="120" x2="400" y2="250" stroke="#D97757" stroke-width="0.3" opacity="0.18"></line><line x1="429.16666666666663" y1="122.5" x2="429.16666666666663" y2="250" stroke="#D97757" stroke-width="0.3" opacity="0.18"></line><line x1="458.33333333333337" y1="125" x2="458.33333333333337" y2="250" stroke="#D97757" stroke-width="0.3" opacity="0.18"></line><line x1="487.5" y1="127.5" x2="487.5" y2="250" stroke="#D97757" stroke-width="0.3" opacity="0.18"></line><line x1="516.6666666666666" y1="130" x2="516.6666666666666" y2="250" stroke="#D97757" stroke-width="0.3" opacity="0.18"></line><line x1="545.8333333333334" y1="132.5" x2="545.8333333333334" y2="250" stroke="#D97757" stroke-width="0.3" opacity="0.18"></line><line x1="575" y1="135" x2="575" y2="250" stroke="#D97757" stroke-width="0.3" opacity="0.18"></line><line x1="604.1666666666666" y1="137.5" x2="604.1666666666666" y2="250" stroke="#D97757" stroke-width="0.3" opacity="0.18"></line><line x1="633.3333333333334" y1="140" x2="633.3333333333334" y2="250" stroke="#D97757" stroke-width="0.3" opacity="0.18"></line><line x1="662.5" y1="142.5" x2="662.5" y2="250" stroke="#D97757" stroke-width="0.3" opacity="0.18"></line><line x1="691.6666666666666" y1="145" x2="691.6666666666666" y2="250" stroke="#D97757" stroke-width="0.3" opacity="0.18"></line><line x1="720.8333333333334" y1="147.5" x2="720.8333333333334" y2="250" stroke="#D97757" stroke-width="0.3" opacity="0.18"></line><line x1="50" y1="220" x2="750" y2="220" stroke="#D97757" stroke-width="0.4" opacity="0.25"></line><line x1="50" y1="190" x2="750" y2="190" stroke="#D97757" stroke-width="0.4" opacity="0.25"></line><line x1="50" y1="160" x2="750" y2="160" stroke="#D97757" stroke-width="0.4" opacity="0.25"></line><rect x="355" y="150" width="90" height="100" fill="none" stroke="#D97757" stroke-width="1" opacity="0.7"></rect><line x1="355" y1="162.5" x2="445" y2="162.5" stroke="#D97757" stroke-width="0.4" opacity="0.4"></line><line x1="355" y1="175" x2="445" y2="175" stroke="#D97757" stroke-width="0.4" opacity="0.4"></line><line x1="355" y1="187.5" x2="445" y2="187.5" stroke="#D97757" stroke-width="0.4" opacity="0.4"></line><line x1="355" y1="200" x2="445" y2="200" stroke="#D97757" stroke-width="0.4" opacity="0.4"></line><line x1="355" y1="212.5" x2="445" y2="212.5" stroke="#D97757" stroke-width="0.4" opacity="0.4"></line><line x1="355" y1="225" x2="445" y2="225" stroke="#D97757" stroke-width="0.4" opacity="0.4"></line><line x1="355" y1="237.5" x2="445" y2="237.5" stroke="#D97757" stroke-width="0.4" opacity="0.4"></line><line x1="50" y1="294" x2="750" y2="294" stroke="#D97757" stroke-width="0.6" opacity="0.4"></line>
  <text x="32" y="334" font-family="ui-monospace, Menlo, monospace" font-size="11" letter-spacing="2.4" fill="#D97757" opacity="0.55">INDUSTRIALE · 5.000 MQ · PREFABBRICATO</text>
  <line x1="32" y1="342" x2="305.6" y2="342" stroke="#D97757" stroke-width="1" opacity="0.4"></line>
</svg>