<svg xmlns="http://www.w3.org/2000/svg" viewBox="0 0 800 360" preserveAspectRatio="xMidYMid slice">
  <defs>
    <linearGradient id="bg" x1="0" y1="0" x2="1" y2="1">
      <stop offset="0" stop-color="#1a0e08"></stop>
      <stop offset="1" stop-color="#2a1810"></stop>
    </linearGradient>
    <pattern id="grid" x="0" y="0" width="40" height="40" patternUnits="userSpaceOnUse">
      <path d="M 40 0 L 0 0 0 40" fill="none" stroke="#D97757" stroke-width="0.4" opacity="0.08"></path>
    </pattern>
  </defs>
  <rect width="800" height="360" fill="url(#bg)"></rect>
  <rect width="800" height="360" fill="url(#grid)"></rect>
  <line x1="0" y1="280" x2="800" y2="280" stroke="#D97757" stroke-width="1.2" opacity="0.5"></line><polyline points="130,250 130,170 375,110 620,170 620,250 130,250" fill="none" stroke="#D97757" stroke-width="1.4" opacity="0.85"></polyline><line x1="130" y1="190" x2="620" y2="190" stroke="#D97757" stroke-width="0.6" opacity="0.35"></line><rect x="160" y="200" width="32" height="32" fill="none" stroke="#D97757" stroke-width="0.8" opacity="0.55"></rect><path d="M 160 200 Q 176 188 192 200" fill="none" stroke="#D97757" stroke-width="0.8" opacity="0.55"></path><line x1="176" y1="192" x2="176" y2="232" stroke="#D97757" stroke-width="0.4" opacity="0.35"></line><rect x="216" y="200" width="32" height="32" fill="none" stroke="#D97757" stroke-width="0.8" opacity="0.55"></rect><path d="M 216 200 Q 232 188 248 200" fill="none" stroke="#D97757" stroke-width="0.8" opacity="0.55"></path><line x1="232" y1="192" x2="232" y2="232" stroke="#D97757" stroke-width="0.4" opacity="0.35"></line><rect x="272" y="200" width="32" height="32" fill="none" stroke="#D97757" stroke-width="0.8" opacity="0.55"></rect><path d="M 272 200 Q 288 188 304 200" fill="none" stroke="#D97757" stroke-width="0.8" opacity="0.55"></path><line x1="288" y1="192" x2="288" y2="232" stroke="#D97757" stroke-width="0.4" opacity="0.35"></line><rect x="328" y="200" width="32" height="32" fill="none" stroke="#D97757" stroke-width="0.8" opacity="0.55"></rect><path d="M 328 200 Q 344 188 360 200" fill="none" stroke="#D97757" stroke-width="0.8" opacity="0.55"></path><line x1="344" y1="192" x2="344" y2="232" stroke="#D97757" stroke-width="0.4" opacity="0.35"></line><rect x="384" y="200" width="32" height="32" fill="none" stroke="#D97757" stroke-width="0.8" opacity="0.55"></rect><path d="M 384 200 Q 400 188 416 200" fill="none" stroke="#D97757" stroke-width="0.8" opacity="0.55"></path><line x1="400" y1="192" x2="400" y2="232" stroke="#D97757" stroke-width="0.4" opacity="0.35"></line><rect x="440" y="200" width="32" height="32" fill="none" stroke="#D97757" stroke-width="0.8" opacity="0.55"></rect><path d="M 440 200 Q 456 188 472 200" fill="none" stroke="#D97757" stroke-width="0.8" opacity="0.55"></path><line x1="456" y1="192" x2="456" y2="232" stroke="#D97757" stroke-width="0.4" opacity="0.35"></line><rect x="496" y="200" width="32" height="32" fill="none" stroke="#D97757" stroke-width="0.8" opacity="0.55"></rect><path d="M 496 200 Q 512 188 528 200" fill="none" stroke="#D97757" stroke-width="0.8" opacity="0.55"></path><line x1="512" y1="192" x2="512" y2="232" stroke="#D97757" stroke-width="0.4" opacity="0.35"></line><rect x="552" y="200" width="32" height="32" fill="none" stroke="#D97757" stroke-width="0.8" opacity="0.55"></rect><path d="M 552 200 Q 568 188 584 200" fill="none" stroke="#D97757" stroke-width="0.8" opacity="0.55"></path><line x1="568" y1="192" x2="568" y2="232" stroke="#D97757" stroke-width="0.4" opacity="0.35"></line><rect x="160" y="150" width="32" height="32" fill="none" stroke="#D97757" stroke-width="0.8" opacity="0.55"></rect><path d="M 160 150 Q 176 138 192 150" fill="none" stroke="#D97757" stroke-width="0.8" opacity="0.55"></path><line x1="176" y1="142" x2="176" y2="182" stroke="#D97757" stroke-width="0.4" opacity="0.35"></line><rect x="216" y="150" width="32" height="32" fill="none" stroke="#D97757" stroke-width="0.8" opacity="0.55"></rect><path d="M 216 150 Q 232 138 248 150" fill="none" stroke="#D97757" stroke-width="0.8" opacity="0.55"></path><line x1="232" y1="142" x2="232" y2="182" stroke="#D97757" stroke-width="0.4" opacity="0.35"></line><rect x="272" y="150" width="32" height="32" fill="none" stroke="#D97757" stroke-width="0.8" opacity="0.55"></rect><path d="M 272 150 Q 288 138 304 150" fill="none" stroke="#D97757" stroke-width="0.8" opacity="0.55"></path><line x1="288" y1="142" x2="288" y2="182" stroke="#D97757" stroke-width="0.4" opacity="0.35"></line><rect x="328" y="150" width="32" height="32" fill="none" stroke="#D97757" stroke-width="0.8" opacity="0.55"></rect><path d="M 328 150 Q 344 138 360 150" fill="none" stroke="#D97757" stroke-width="0.8" opacity="0.55"></path><line x1="344" y1="142" x2="344" y2="182" stroke="#D97757" stroke-width="0.4" opacity="0.35"></line><rect x="384" y="150" width="32" height="32" fill="none" stroke="#D97757" stroke-width="0.8" opacity="0.55"></rect><path d="M 384 150 Q 400 138 416 150" fill="none" stroke="#D97757" stroke-width="0.8" opacity="0.55"></path><line x1="400" y1="142" x2="400" y2="182" stroke="#D97757" stroke-width="0.4" opacity="0.35"></line><rect x="440" y="150" width="32" height="32" fill="none" stroke="#D97757" stroke-width="0.8" opacity="0.55"></rect><path d="M 440 150 Q 456 138 472 150" fill="none" stroke="#D97757" stroke-width="0.8" opacity="0.55"></path><line x1="456" y1="142" x2="456" y2="182" stroke="#D97757" stroke-width="0.4" opacity="0.35"></line><rect x="496" y="150" width="32" height="32" fill="none" stroke="#D97757" stroke-width="0.8" opacity="0.55"></rect><path d="M 496 150 Q 512 138 528 150" fill="none" stroke="#D97757" stroke-width="0.8" opacity="0.55"></path><line x1="512" y1="142" x2="512" y2="182" stroke="#D97757" stroke-width="0.4" opacity="0.35"></line><rect x="552" y="150" width="32" height="32" fill="none" stroke="#D97757" stroke-width="0.8" opacity="0.55"></rect><path d="M 552 150 Q 568 138 584 150" fill="none" stroke="#D97757" stroke-width="0.8" opacity="0.55"></path><line x1="568" y1="142" x2="568" y2="182" stroke="#D97757" stroke-width="0.4" opacity="0.35"></line><rect x="650" y="60" width="22" height="220" fill="none" stroke="#D97757" stroke-width="1.2" opacity="0.75"></rect><rect x="646" y="56" width="30" height="8" fill="none" stroke="#D97757" stroke-width="1.2" opacity="0.75"></rect>
  <text x="32" y="334" font-family="ui-monospace, Menlo, monospace" font-size="11" letter-spacing="2.4" fill="#D97757" opacity="0.55">TESSILE · FRP NON INVASIVO · 2013</text>
  <line x1="32" y1="342" x2="269.6" y2="342" stroke="#D97757" stroke-width="1" opacity="0.4"></line>
</svg>